<svg width="14" height="14" viewBox="0 0 14 14" fill="none" xmlns="http://www.w3.org/2000/svg">
<path opacity="0.2" d="M11.7829 11.8122H2.21696C1.52681 11.8122 1.09368 11.0898 1.42892 10.5046L6.21189 2.19922C6.55642 1.59766 7.44345 1.59766 7.78798 2.19922L12.5709 10.5046C12.9062 11.0898 12.4731 11.8122 11.7829 11.8122Z" fill="#1A56DB"/>
<path d="M12.9501 10.2862L8.16768 1.98082C8.04817 1.77734 7.87756 1.60862 7.67276 1.4914C7.46796 1.37417 7.23608 1.3125 7.0001 1.3125C6.76412 1.3125 6.53224 1.37417 6.32744 1.4914C6.12264 1.60862 5.95203 1.77734 5.83252 1.98082L1.0501 10.2862C0.93511 10.483 0.874512 10.7069 0.874512 10.9348C0.874512 11.1627 0.93511 11.3866 1.0501 11.5834C1.16808 11.7881 1.33839 11.9577 1.54358 12.0749C1.74876 12.192 1.98142 12.2525 2.21768 12.25H11.7825C12.0186 12.2523 12.251 12.1918 12.456 12.0746C12.661 11.9575 12.8311 11.7879 12.949 11.5834C13.0642 11.3867 13.1249 11.1629 13.1251 10.9349C13.1253 10.707 13.0649 10.4831 12.9501 10.2862ZM12.1916 11.1453C12.1499 11.2165 12.09 11.2752 12.0182 11.3156C11.9463 11.3559 11.8649 11.3765 11.7825 11.375H2.21768C2.13525 11.3765 2.05393 11.3559 1.98204 11.3156C1.91016 11.2752 1.85031 11.2165 1.80861 11.1453C1.77085 11.0814 1.75093 11.0085 1.75093 10.9343C1.75093 10.86 1.77085 10.7871 1.80861 10.7232L6.59104 2.41777C6.63357 2.34699 6.6937 2.28842 6.76557 2.24776C6.83744 2.2071 6.91861 2.18573 7.00119 2.18573C7.08377 2.18573 7.16494 2.2071 7.23681 2.24776C7.30869 2.28842 7.36881 2.34699 7.41135 2.41777L12.1938 10.7232C12.2312 10.7873 12.2507 10.8603 12.2504 10.9346C12.25 11.0088 12.2297 11.0816 12.1916 11.1453ZM6.5626 7.87504V5.68754C6.5626 5.5715 6.60869 5.46022 6.69074 5.37818C6.77279 5.29613 6.88407 5.25004 7.0001 5.25004C7.11613 5.25004 7.22741 5.29613 7.30946 5.37818C7.39151 5.46022 7.4376 5.5715 7.4376 5.68754V7.87504C7.4376 7.99107 7.39151 8.10235 7.30946 8.1844C7.22741 8.26644 7.11613 8.31254 7.0001 8.31254C6.88407 8.31254 6.77279 8.26644 6.69074 8.1844C6.60869 8.10235 6.5626 7.99107 6.5626 7.87504ZM7.65635 9.84379C7.65635 9.97358 7.61786 10.1005 7.54575 10.2084C7.47364 10.3163 7.37115 10.4004 7.25123 10.4501C7.13132 10.4998 6.99937 10.5127 6.87207 10.4874C6.74477 10.4621 6.62784 10.3996 6.53606 10.3078C6.44428 10.216 6.38178 10.0991 6.35646 9.97181C6.33114 9.84451 6.34413 9.71256 6.3938 9.59265C6.44347 9.47274 6.52759 9.37024 6.63551 9.29813C6.74343 9.22602 6.8703 9.18754 7.0001 9.18754C7.17415 9.18754 7.34107 9.25668 7.46414 9.37975C7.58721 9.50282 7.65635 9.66974 7.65635 9.84379Z" fill="#1A56DB"/>
</svg>
