<svg width="14" height="14" viewBox="0 0 14 14" fill="none" xmlns="http://www.w3.org/2000/svg">
<path opacity="0.2" d="M12.6875 3.0625V10.9375H8.75C8.28587 10.9375 7.84075 11.1219 7.51256 11.4501C7.18437 11.7783 7 12.2234 7 12.6875V4.8125C7 4.34837 7.18437 3.90325 7.51256 3.57506C7.84075 3.24687 8.28587 3.0625 8.75 3.0625H12.6875Z" fill="#1A56DB"/>
<path d="M12.6875 2.625H8.75C8.4104 2.625 8.07547 2.70407 7.77172 2.85594C7.46797 3.00781 7.20376 3.22832 7 3.5C6.79624 3.22832 6.53203 3.00781 6.22828 2.85594C5.92453 2.70407 5.5896 2.625 5.25 2.625H1.3125C1.19647 2.625 1.08519 2.67109 1.00314 2.75314C0.921094 2.83519 0.875 2.94647 0.875 3.0625V10.9375C0.875 11.0535 0.921094 11.1648 1.00314 11.2469C1.08519 11.3289 1.19647 11.375 1.3125 11.375H5.25C5.5981 11.375 5.93194 11.5133 6.17808 11.7594C6.42422 12.0056 6.5625 12.3394 6.5625 12.6875C6.5625 12.8035 6.60859 12.9148 6.69064 12.9969C6.77269 13.0789 6.88397 13.125 7 13.125C7.11603 13.125 7.22731 13.0789 7.30936 12.9969C7.39141 12.9148 7.4375 12.8035 7.4375 12.6875C7.4375 12.3394 7.57578 12.0056 7.82192 11.7594C8.06806 11.5133 8.4019 11.375 8.75 11.375H12.6875C12.8035 11.375 12.9148 11.3289 12.9969 11.2469C13.0789 11.1648 13.125 11.0535 13.125 10.9375V3.0625C13.125 2.94647 13.0789 2.83519 12.9969 2.75314C12.9148 2.67109 12.8035 2.625 12.6875 2.625ZM5.25 10.5H1.75V3.5H5.25C5.5981 3.5 5.93194 3.63828 6.17808 3.88442C6.42422 4.13056 6.5625 4.4644 6.5625 4.8125V10.9375C6.18421 10.6528 5.72343 10.4992 5.25 10.5ZM12.25 10.5H8.75C8.27657 10.4992 7.81579 10.6528 7.4375 10.9375V4.8125C7.4375 4.4644 7.57578 4.13056 7.82192 3.88442C8.06806 3.63828 8.4019 3.5 8.75 3.5H12.25V10.5ZM8.75 4.8125H10.9375C11.0535 4.8125 11.1648 4.85859 11.2469 4.94064C11.3289 5.02269 11.375 5.13397 11.375 5.25C11.375 5.36603 11.3289 5.47731 11.2469 5.55936C11.1648 5.64141 11.0535 5.6875 10.9375 5.6875H8.75C8.63397 5.6875 8.52269 5.64141 8.44064 5.55936C8.35859 5.47731 8.3125 5.36603 8.3125 5.25C8.3125 5.13397 8.35859 5.02269 8.44064 4.94064C8.52269 4.85859 8.63397 4.8125 8.75 4.8125ZM11.375 7C11.375 7.11603 11.3289 7.22731 11.2469 7.30936C11.1648 7.39141 11.0535 7.4375 10.9375 7.4375H8.75C8.63397 7.4375 8.52269 7.39141 8.44064 7.30936C8.35859 7.22731 8.3125 7.11603 8.3125 7C8.3125 6.88397 8.35859 6.77269 8.44064 6.69064C8.52269 6.60859 8.63397 6.5625 8.75 6.5625H10.9375C11.0535 6.5625 11.1648 6.60859 11.2469 6.69064C11.3289 6.77269 11.375 6.88397 11.375 7ZM11.375 8.75C11.375 8.86603 11.3289 8.97731 11.2469 9.05936C11.1648 9.14141 11.0535 9.1875 10.9375 9.1875H8.75C8.63397 9.1875 8.52269 9.14141 8.44064 9.05936C8.35859 8.97731 8.3125 8.86603 8.3125 8.75C8.3125 8.63397 8.35859 8.52269 8.44064 8.44064C8.52269 8.35859 8.63397 8.3125 8.75 8.3125H10.9375C11.0535 8.3125 11.1648 8.35859 11.2469 8.44064C11.3289 8.52269 11.375 8.63397 11.375 8.75Z" fill="#1A56DB"/>
</svg>
