<svg width="16" height="16" viewBox="0 0 16 16" fill="none" xmlns="http://www.w3.org/2000/svg">
<path d="M10.2652 12.7354C10.302 12.7697 10.3316 12.8111 10.352 12.8571C10.3725 12.9031 10.3836 12.9528 10.3845 13.0032C10.3853 13.0535 10.3761 13.1035 10.3572 13.1502C10.3384 13.1969 10.3103 13.2393 10.2747 13.2749C10.2391 13.3105 10.1967 13.3386 10.15 13.3575C10.1033 13.3763 10.0532 13.3856 10.0029 13.3847C9.95255 13.3838 9.90289 13.3728 9.85689 13.3523C9.81089 13.3318 9.76949 13.3023 9.73516 13.2654L4.73516 8.26541C4.66493 8.1951 4.62549 8.09979 4.62549 8.00041C4.62549 7.90104 4.66493 7.80572 4.73516 7.73541L9.73516 2.73541C9.80625 2.66917 9.90027 2.63311 9.99742 2.63482C10.0946 2.63654 10.1873 2.67589 10.256 2.7446C10.3247 2.81331 10.364 2.906 10.3657 3.00315C10.3675 3.1003 10.3314 3.19432 10.2652 3.26541L5.53078 8.00041L10.2652 12.7354Z" fill="#A09E97"/>
</svg>
