<svg width="16" height="16" viewBox="0 0 16 16" fill="none" xmlns="http://www.w3.org/2000/svg">
<path d="M11.2649 8.26541L6.26492 13.2654C6.19384 13.3317 6.09981 13.3677 6.00266 13.366C5.90551 13.3643 5.81282 13.3249 5.74411 13.2562C5.67541 13.1875 5.63605 13.0948 5.63434 12.9977C5.63262 12.9005 5.66868 12.8065 5.73492 12.7354L10.4693 8.00041L5.73492 3.26541C5.66868 3.19432 5.63262 3.1003 5.63434 3.00315C5.63605 2.906 5.67541 2.81331 5.74411 2.7446C5.81282 2.67589 5.90551 2.63654 6.00266 2.63482C6.09981 2.63311 6.19384 2.66917 6.26492 2.73541L11.2649 7.73541C11.3351 7.80572 11.3746 7.90104 11.3746 8.00041C11.3746 8.09979 11.3351 8.1951 11.2649 8.26541Z" fill="#FCFCFD"/>
</svg>
