<svg width="24" height="24" viewBox="0 0 24 24" fill="none" xmlns="http://www.w3.org/2000/svg">
<path opacity="0.2" d="M21 6C21 6.44501 20.868 6.88002 20.6208 7.25003C20.3736 7.62004 20.0222 7.90843 19.611 8.07873C19.1999 8.24903 18.7475 8.29358 18.311 8.20677C17.8746 8.11995 17.4737 7.90566 17.159 7.59099C16.8443 7.27632 16.6301 6.87541 16.5432 6.43895C16.4564 6.0025 16.501 5.5501 16.6713 5.13896C16.8416 4.72783 17.13 4.37643 17.5 4.12919C17.87 3.88196 18.305 3.75 18.75 3.75C19.3467 3.75 19.919 3.98705 20.341 4.40901C20.7629 4.83097 21 5.40326 21 6Z" fill="#1B6F4A"/>
<path d="M21.75 6.00044C21.7497 5.43941 21.5921 4.88969 21.2951 4.41373C20.9981 3.93776 20.5736 3.55462 20.0697 3.30782C19.5659 3.06102 19.0029 2.96044 18.4448 3.01752C17.8867 3.0746 17.3557 3.28703 16.9123 3.63071C16.4688 3.97438 16.1306 4.43552 15.9361 4.96176C15.7416 5.48799 15.6985 6.05822 15.8118 6.60771C15.9251 7.15719 16.1902 7.66389 16.577 8.07027C16.9638 8.47666 17.4568 8.76643 18 8.90669V10.5004C18 10.6994 17.921 10.8901 17.7803 11.0308C17.6397 11.1714 17.4489 11.2504 17.25 11.2504H9.00001C8.74445 11.2504 8.49077 11.2941 8.25001 11.3798V8.90669C8.957 8.72415 9.57315 8.29002 9.98296 7.68569C10.3928 7.08135 10.5681 6.3483 10.4761 5.62394C10.3841 4.89958 10.0311 4.23364 9.48318 3.75095C8.9353 3.26826 8.23019 3.00195 7.50001 3.00195C6.76983 3.00195 6.06471 3.26826 5.51683 3.75095C4.96895 4.23364 4.61592 4.89958 4.52392 5.62394C4.43191 6.3483 4.60725 7.08135 5.01706 7.68569C5.42687 8.29002 6.04301 8.72415 6.75001 8.90669V15.0942C6.04301 15.2767 5.42687 15.7109 5.01706 16.3152C4.60725 16.9195 4.43191 17.6526 4.52392 18.3769C4.61592 19.1013 4.96895 19.7672 5.51683 20.2499C6.06471 20.7326 6.76983 20.9989 7.50001 20.9989C8.23019 20.9989 8.9353 20.7326 9.48318 20.2499C10.0311 19.7672 10.3841 19.1013 10.4761 18.3769C10.5681 17.6526 10.3928 16.9195 9.98296 16.3152C9.57315 15.7109 8.957 15.2767 8.25001 15.0942V13.5004C8.25001 13.3015 8.32903 13.1108 8.46968 12.9701C8.61033 12.8295 8.8011 12.7504 9.00001 12.7504H17.25C17.8467 12.7504 18.419 12.5134 18.841 12.0914C19.263 11.6695 19.5 11.0972 19.5 10.5004V8.90669C20.1437 8.73948 20.7138 8.36348 21.121 7.83756C21.5282 7.31165 21.7494 6.66554 21.75 6.00044ZM6.00001 6.00044C6.00001 5.70377 6.08798 5.41376 6.2528 5.16709C6.41762 4.92041 6.65189 4.72815 6.92598 4.61462C7.20007 4.50109 7.50167 4.47139 7.79264 4.52926C8.08361 4.58714 8.35089 4.73 8.56067 4.93978C8.77045 5.14956 8.91331 5.41684 8.97119 5.70781C9.02906 5.99878 8.99936 6.30038 8.88583 6.57447C8.77229 6.84856 8.58004 7.08282 8.33336 7.24765C8.08669 7.41247 7.79668 7.50044 7.50001 7.50044C7.10218 7.50044 6.72065 7.34241 6.43935 7.0611C6.15804 6.7798 6.00001 6.39827 6.00001 6.00044ZM9.00001 18.0004C9.00001 18.2971 8.91203 18.5871 8.74721 18.8338C8.58239 19.0805 8.34812 19.2727 8.07403 19.3863C7.79994 19.4998 7.49834 19.5295 7.20737 19.4716C6.9164 19.4137 6.64913 19.2709 6.43935 19.0611C6.22957 18.8513 6.08671 18.584 6.02883 18.2931C5.97095 18.0021 6.00066 17.7005 6.11419 17.4264C6.22772 17.1523 6.41998 16.9181 6.66665 16.7532C6.91333 16.5884 7.20334 16.5004 7.50001 16.5004C7.89783 16.5004 8.27936 16.6585 8.56067 16.9398C8.84197 17.2211 9.00001 17.6026 9.00001 18.0004ZM18.75 7.50044C18.4533 7.50044 18.1633 7.41247 17.9167 7.24765C17.67 7.08282 17.4777 6.84856 17.3642 6.57447C17.2507 6.30038 17.221 5.99878 17.2788 5.70781C17.3367 5.41684 17.4796 5.14956 17.6893 4.93978C17.8991 4.73 18.1664 4.58714 18.4574 4.52926C18.7483 4.47139 19.0499 4.50109 19.324 4.61462C19.5981 4.72815 19.8324 4.92041 19.9972 5.16709C20.162 5.41376 20.25 5.70377 20.25 6.00044C20.25 6.39827 20.092 6.7798 19.8107 7.0611C19.5294 7.34241 19.1478 7.50044 18.75 7.50044Z" fill="#1B6F4A"/>
</svg>
