<svg width="14" height="14" viewBox="0 0 14 14" fill="none" xmlns="http://www.w3.org/2000/svg">
<path opacity="0.2" d="M13.1249 6.78125C13.1251 7.32423 12.9569 7.8539 12.6435 8.29729C12.33 8.74067 11.8868 9.07596 11.3749 9.25695V9.625C11.3749 10.2052 11.1444 10.7616 10.7342 11.1718C10.324 11.582 9.76757 11.8125 9.18741 11.8125C8.60725 11.8125 8.05085 11.582 7.64061 11.1718C7.23038 10.7616 6.99991 10.2052 6.99991 9.625C6.99991 10.2052 6.76944 10.7616 6.3592 11.1718C5.94897 11.582 5.39257 11.8125 4.81241 11.8125C4.23225 11.8125 3.67585 11.582 3.26561 11.1718C2.85538 10.7616 2.62491 10.2052 2.62491 9.625V9.25695C2.11255 9.07635 1.66884 8.74123 1.35497 8.29781C1.04111 7.85439 0.872559 7.32451 0.872559 6.78125C0.872559 6.23799 1.04111 5.70811 1.35497 5.26469C1.66884 4.82127 2.11255 4.48615 2.62491 4.30555V3.9375C2.62491 3.35734 2.85538 2.80094 3.26561 2.3907C3.67585 1.98047 4.23225 1.75 4.81241 1.75C5.39257 1.75 5.94897 1.98047 6.3592 2.3907C6.76944 2.80094 6.99991 3.35734 6.99991 3.9375C6.99991 3.35734 7.23038 2.80094 7.64061 2.3907C8.05085 1.98047 8.60725 1.75 9.18741 1.75C9.76757 1.75 10.324 1.98047 10.7342 2.3907C11.1444 2.80094 11.3749 3.35734 11.3749 3.9375V4.30555C11.8868 4.48654 12.33 4.82183 12.6435 5.26521C12.9569 5.7086 13.1251 6.23827 13.1249 6.78125Z" fill="#131210"/>
<path d="M13.5624 6.78085C13.5618 6.20135 13.3972 5.63385 13.0875 5.14404C12.7778 4.65423 12.3357 4.26213 11.8124 4.01312V3.9371C11.8119 3.37339 11.63 2.82482 11.2935 2.37256C10.957 1.92029 10.4839 1.58835 9.94407 1.42587C9.40429 1.26338 8.82653 1.27897 8.2963 1.47034C7.76607 1.6617 7.31152 2.01867 6.99992 2.48843C6.68832 2.01867 6.23377 1.6617 5.70354 1.47034C5.17331 1.27897 4.59556 1.26338 4.05577 1.42587C3.51599 1.58835 3.04285 1.92029 2.70637 2.37256C2.36988 2.82482 2.18793 3.37339 2.18742 3.9371V4.01312C1.6637 4.26145 1.2212 4.6533 0.911348 5.14314C0.601495 5.63298 0.437012 6.20069 0.437012 6.78031C0.437012 7.35992 0.601495 7.92763 0.911348 8.41747C1.2212 8.90731 1.6637 9.29917 2.18742 9.54749V9.6246C2.18793 10.1883 2.36988 10.7369 2.70637 11.1892C3.04285 11.6414 3.51599 11.9734 4.05577 12.1358C4.59556 12.2983 5.17331 12.2827 5.70354 12.0914C6.23377 11.9 6.68832 11.543 6.99992 11.0733C7.31152 11.543 7.76607 11.9 8.2963 12.0914C8.82653 12.2827 9.40429 12.2983 9.94407 12.1358C10.4839 11.9734 10.957 11.6414 11.2935 11.1892C11.63 10.7369 11.8119 10.1883 11.8124 9.6246V9.54749C12.3356 9.29867 12.7776 8.90677 13.0874 8.41714C13.3971 7.92752 13.5618 7.3602 13.5624 6.78085ZM4.81242 11.3746C4.38091 11.3745 3.96463 11.2151 3.64354 10.9268C3.32246 10.6385 3.1192 10.2417 3.07281 9.81273C3.21429 9.83291 3.35701 9.84315 3.49992 9.84335H3.93742C4.05345 9.84335 4.16473 9.79726 4.24678 9.71521C4.32883 9.63317 4.37492 9.52189 4.37492 9.40585C4.37492 9.28982 4.32883 9.17854 4.24678 9.09649C4.16473 9.01445 4.05345 8.96835 3.93742 8.96835H3.49992C2.98343 8.96896 2.48339 8.78679 2.08832 8.4541C1.69325 8.1214 1.42864 7.65965 1.34134 7.15059C1.25404 6.64153 1.34968 6.118 1.61133 5.67269C1.87298 5.22738 2.28376 4.88901 2.77094 4.71749C2.85618 4.68731 2.92998 4.63146 2.98217 4.55762C3.03437 4.48378 3.06241 4.39558 3.06242 4.30515V3.9371C3.06242 3.47297 3.2468 3.02786 3.57498 2.69967C3.90317 2.37148 4.34829 2.1871 4.81242 2.1871C5.27655 2.1871 5.72167 2.37148 6.04986 2.69967C6.37805 3.02786 6.56242 3.47297 6.56242 3.9371V7.67007C6.082 7.23798 5.45857 6.99913 4.81242 6.9996C4.69639 6.9996 4.58511 7.0457 4.50306 7.12774C4.42102 7.20979 4.37492 7.32107 4.37492 7.4371C4.37492 7.55314 4.42102 7.66442 4.50306 7.74646C4.58511 7.82851 4.69639 7.8746 4.81242 7.8746C5.27655 7.8746 5.72167 8.05898 6.04986 8.38717C6.37805 8.71536 6.56242 9.16047 6.56242 9.6246C6.56242 10.0887 6.37805 10.5339 6.04986 10.862C5.72167 11.1902 5.27655 11.3746 4.81242 11.3746ZM10.4999 8.96835H10.0624C9.94639 8.96835 9.83511 9.01445 9.75306 9.09649C9.67101 9.17854 9.62492 9.28982 9.62492 9.40585C9.62492 9.52189 9.67101 9.63317 9.75306 9.71521C9.83511 9.79726 9.94639 9.84335 10.0624 9.84335H10.4999C10.6428 9.84315 10.7856 9.83291 10.927 9.81273C10.8907 10.1489 10.7577 10.4673 10.5443 10.7295C10.3308 10.9917 10.046 11.1864 9.72416 11.2902C9.40237 11.3939 9.05741 11.4022 8.73099 11.3141C8.40458 11.226 8.11068 11.0452 7.88484 10.7935C7.65899 10.5419 7.51088 10.2303 7.45839 9.89627C7.4059 9.56227 7.45129 9.22021 7.58908 8.91145C7.72686 8.60269 7.95113 8.34046 8.23479 8.15645C8.51844 7.97245 8.84932 7.87456 9.18742 7.8746C9.30345 7.8746 9.41473 7.82851 9.49678 7.74646C9.57883 7.66442 9.62492 7.55314 9.62492 7.4371C9.62492 7.32107 9.57883 7.20979 9.49678 7.12774C9.41473 7.0457 9.30345 6.9996 9.18742 6.9996C8.54127 6.99913 7.91784 7.23798 7.43742 7.67007V3.9371C7.43742 3.47297 7.6218 3.02786 7.94999 2.69967C8.27817 2.37148 8.72329 2.1871 9.18742 2.1871C9.65155 2.1871 10.0967 2.37148 10.4249 2.69967C10.753 3.02786 10.9374 3.47297 10.9374 3.9371V4.30515C10.9374 4.39558 10.9655 4.48378 11.0177 4.55762C11.0699 4.63146 11.1437 4.68731 11.2289 4.71749C11.7161 4.88901 12.1269 5.22738 12.3885 5.67269C12.6502 6.118 12.7458 6.64153 12.6585 7.15059C12.5712 7.65965 12.3066 8.1214 11.9115 8.4541C11.5165 8.78679 11.0164 8.96896 10.4999 8.96835ZM11.3749 6.1246C11.3749 6.24064 11.3288 6.35192 11.2468 6.43396C11.1647 6.51601 11.0535 6.5621 10.9374 6.5621H10.7187C10.1965 6.5621 9.69577 6.35468 9.32656 5.98547C8.95734 5.61626 8.74992 5.1155 8.74992 4.59335V4.3746C8.74992 4.25857 8.79601 4.14729 8.87806 4.06524C8.96011 3.9832 9.07139 3.9371 9.18742 3.9371C9.30345 3.9371 9.41473 3.9832 9.49678 4.06524C9.57883 4.14729 9.62492 4.25857 9.62492 4.3746V4.59335C9.62492 4.88343 9.74016 5.16163 9.94527 5.36675C10.1504 5.57187 10.4286 5.6871 10.7187 5.6871H10.9374C11.0535 5.6871 11.1647 5.7332 11.2468 5.81524C11.3288 5.89729 11.3749 6.00857 11.3749 6.1246ZM3.28117 6.5621H3.06242C2.94639 6.5621 2.83511 6.51601 2.75306 6.43396C2.67102 6.35192 2.62492 6.24064 2.62492 6.1246C2.62492 6.00857 2.67102 5.89729 2.75306 5.81524C2.83511 5.7332 2.94639 5.6871 3.06242 5.6871H3.28117C3.57125 5.6871 3.84945 5.57187 4.05457 5.36675C4.25969 5.16163 4.37492 4.88343 4.37492 4.59335V4.3746C4.37492 4.25857 4.42102 4.14729 4.50306 4.06524C4.58511 3.9832 4.69639 3.9371 4.81242 3.9371C4.92845 3.9371 5.03973 3.9832 5.12178 4.06524C5.20383 4.14729 5.24992 4.25857 5.24992 4.3746V4.59335C5.24992 5.1155 5.0425 5.61626 4.67329 5.98547C4.30408 6.35468 3.80332 6.5621 3.28117 6.5621Z" fill="#131210"/>
</svg>
