<svg width="14" height="14" viewBox="0 0 14 14" fill="none" xmlns="http://www.w3.org/2000/svg">
<path opacity="0.2" d="M9.1875 7.875C9.1875 8.30765 9.05921 8.73058 8.81884 9.09031C8.57848 9.45004 8.23683 9.73042 7.83712 9.89599C7.43741 10.0616 6.99757 10.1049 6.57324 10.0205C6.14891 9.93606 5.75913 9.72772 5.4532 9.4218C5.14728 9.11587 4.93894 8.72609 4.85453 8.30176C4.77013 7.87743 4.81345 7.43759 4.97901 7.03788C5.14458 6.63817 5.42496 6.29653 5.78469 6.05616C6.14442 5.81579 6.56735 5.6875 7 5.6875C7.58016 5.6875 8.13656 5.91797 8.5468 6.3282C8.95703 6.73844 9.1875 7.29484 9.1875 7.875ZM3.5 3.0625C3.15388 3.0625 2.81554 3.16514 2.52775 3.35743C2.23997 3.54972 2.01566 3.82303 1.88321 4.1428C1.75076 4.46257 1.7161 4.81444 1.78363 5.15391C1.85115 5.49337 2.01782 5.8052 2.26256 6.04994C2.50731 6.29468 2.81913 6.46135 3.15859 6.52887C3.49806 6.5964 3.84993 6.56174 4.1697 6.42929C4.48947 6.29684 4.76278 6.07253 4.95507 5.78475C5.14736 5.49696 5.25 5.15862 5.25 4.8125C5.25 4.34837 5.06563 3.90325 4.73744 3.57506C4.40925 3.24687 3.96413 3.0625 3.5 3.0625ZM10.5 3.0625C10.1539 3.0625 9.81554 3.16514 9.52775 3.35743C9.23997 3.54972 9.01566 3.82303 8.88321 4.1428C8.75076 4.46257 8.7161 4.81444 8.78363 5.15391C8.85115 5.49337 9.01782 5.8052 9.26256 6.04994C9.50731 6.29468 9.81913 6.46135 10.1586 6.52887C10.4981 6.5964 10.8499 6.56174 11.1697 6.42929C11.4895 6.29684 11.7628 6.07253 11.9551 5.78475C12.1474 5.49696 12.25 5.15862 12.25 4.8125C12.25 4.34837 12.0656 3.90325 11.7374 3.57506C11.4092 3.24687 10.9641 3.0625 10.5 3.0625Z" fill="#131210"/>
<path d="M13.3875 8.22453C13.3416 8.259 13.2893 8.28408 13.2336 8.29834C13.178 8.3126 13.12 8.31576 13.0632 8.30763C13.0063 8.29951 12.9516 8.28026 12.9021 8.25099C12.8527 8.22171 12.8095 8.18299 12.775 8.13703C12.5113 7.78258 12.1681 7.49499 11.773 7.29742C11.3778 7.09985 10.9418 6.99781 10.5 6.99953C10.384 6.99953 10.2727 6.95343 10.1907 6.87139C10.1086 6.78934 10.0625 6.67806 10.0625 6.56203C10.0625 6.446 10.1086 6.33472 10.1907 6.25267C10.2727 6.17062 10.384 6.12453 10.5 6.12453C10.7455 6.12451 10.9861 6.05564 11.1944 5.92576C11.4027 5.79588 11.5704 5.61018 11.6784 5.38977C11.7865 5.16935 11.8306 4.92305 11.8057 4.67884C11.7807 4.43463 11.6878 4.2023 11.5375 4.00824C11.3872 3.81418 11.1854 3.66617 10.9552 3.58102C10.725 3.49587 10.4755 3.47699 10.235 3.52653C9.99462 3.57608 9.77291 3.69205 9.59509 3.86128C9.41727 4.03051 9.29048 4.24622 9.22911 4.4839C9.21474 4.53956 9.18956 4.59184 9.15499 4.63777C9.12042 4.68369 9.07714 4.72236 9.02763 4.75156C8.97812 4.78076 8.92334 4.79992 8.86642 4.80795C8.8095 4.81598 8.75156 4.81272 8.6959 4.79836C8.64025 4.78399 8.58796 4.75881 8.54204 4.72424C8.49611 4.68967 8.45745 4.64639 8.42825 4.59688C8.39905 4.54737 8.37989 4.49259 8.37186 4.43567C8.36383 4.37875 8.36709 4.32081 8.38145 4.26515C8.46663 3.93556 8.62756 3.63039 8.85143 3.37394C9.0753 3.11748 9.35594 2.91682 9.67101 2.78791C9.98608 2.659 10.3269 2.6054 10.6663 2.63138C11.0057 2.65736 11.3344 2.7622 11.6262 2.93757C11.918 3.11293 12.1648 3.35397 12.347 3.64151C12.5293 3.92905 12.6419 4.25515 12.6759 4.59387C12.7099 4.93259 12.6644 5.27457 12.543 5.59261C12.4216 5.91065 12.2277 6.19597 11.9766 6.42586C12.5715 6.68343 13.0887 7.09218 13.4767 7.61148C13.5112 7.65756 13.5362 7.70999 13.5504 7.76576C13.5646 7.82153 13.5676 7.87955 13.5593 7.9365C13.551 7.99345 13.5316 8.0482 13.5021 8.09762C13.4726 8.14705 13.4337 8.19017 13.3875 8.22453ZM10.441 11.5933C10.4715 11.6431 10.4918 11.6985 10.5006 11.7563C10.5093 11.814 10.5065 11.8729 10.4921 11.9296C10.4777 11.9862 10.4522 12.0394 10.4169 12.086C10.3817 12.1326 10.3374 12.1716 10.2869 12.2008C10.2363 12.2301 10.1803 12.2489 10.1224 12.2561C10.0644 12.2634 10.0056 12.2589 9.94933 12.2431C9.8931 12.2272 9.84061 12.2003 9.79497 12.1638C9.74932 12.1274 9.71144 12.0821 9.68356 12.0308C9.40793 11.5642 9.01544 11.1776 8.5448 10.909C8.07417 10.6404 7.54165 10.4992 6.99977 10.4992C6.45789 10.4992 5.92537 10.6404 5.45474 10.909C4.98411 11.1776 4.59162 11.5642 4.31598 12.0308C4.28863 12.0831 4.25099 12.1293 4.20532 12.1666C4.15964 12.204 4.10688 12.2317 4.05022 12.2482C3.99355 12.2646 3.93414 12.2694 3.87556 12.2623C3.81699 12.2552 3.76046 12.2363 3.70938 12.2068C3.65829 12.1772 3.61371 12.1377 3.57831 12.0905C3.54291 12.0433 3.51742 11.9894 3.50338 11.9321C3.48934 11.8748 3.48704 11.8152 3.49662 11.757C3.5062 11.6988 3.52745 11.6431 3.55911 11.5933C3.98326 10.8645 4.62999 10.291 5.40426 9.95703C4.96858 9.62345 4.64839 9.16174 4.48868 8.63678C4.32898 8.11182 4.3378 7.55001 4.5139 7.03032C4.69001 6.51063 5.02454 6.05919 5.47047 5.73946C5.91641 5.41973 6.45133 5.24778 7.00004 5.24778C7.54876 5.24778 8.08368 5.41973 8.52962 5.73946C8.97555 6.05919 9.31008 6.51063 9.48618 7.03032C9.66229 7.55001 9.67111 8.11182 9.5114 8.63678C9.3517 9.16174 9.03151 9.62345 8.59582 9.95703C9.37009 10.291 10.0168 10.8645 10.441 11.5933ZM7.00004 9.62453C7.34616 9.62453 7.68451 9.52189 7.97229 9.3296C8.26008 9.13731 8.48438 8.86399 8.61683 8.54422C8.74929 8.22445 8.78394 7.87259 8.71642 7.53312C8.64889 7.19365 8.48222 6.88183 8.23748 6.63709C7.99274 6.39235 7.68092 6.22568 7.34145 6.15815C7.00199 6.09063 6.65012 6.12529 6.33035 6.25774C6.01058 6.39019 5.73726 6.61449 5.54497 6.90228C5.35268 7.19007 5.25004 7.52841 5.25004 7.87453C5.25004 8.33866 5.43442 8.78378 5.76261 9.11196C6.0908 9.44015 6.53592 9.62453 7.00004 9.62453ZM3.93754 6.56203C3.93754 6.446 3.89145 6.33472 3.8094 6.25267C3.72736 6.17062 3.61608 6.12453 3.50004 6.12453C3.25457 6.12451 3.01402 6.05564 2.80571 5.92576C2.59741 5.79588 2.42971 5.61018 2.32165 5.38977C2.2136 5.16935 2.16952 4.92305 2.19443 4.67884C2.21934 4.43463 2.31224 4.2023 2.46257 4.00824C2.6129 3.81418 2.81464 3.66617 3.04488 3.58102C3.27511 3.49587 3.52462 3.47699 3.76504 3.52653C4.00547 3.57608 4.22718 3.69205 4.405 3.86128C4.58282 4.03051 4.70961 4.24622 4.77098 4.4839C4.79999 4.59631 4.87246 4.69259 4.97246 4.75156C5.07245 4.81053 5.19178 4.82736 5.30418 4.79836C5.41659 4.76935 5.51287 4.69687 5.57184 4.59688C5.63081 4.49688 5.64765 4.37756 5.61864 4.26515C5.53346 3.93556 5.37253 3.63039 5.14866 3.37394C4.92479 3.11748 4.64415 2.91682 4.32908 2.78791C4.01401 2.659 3.6732 2.6054 3.33377 2.63138C2.99434 2.65736 2.66566 2.7622 2.37388 2.93757C2.0821 3.11293 1.83527 3.35397 1.65304 3.64151C1.47081 3.92905 1.3582 4.25515 1.32418 4.59387C1.29015 4.93259 1.33565 5.27457 1.45705 5.59261C1.57845 5.91065 1.77241 6.19597 2.02348 6.42586C1.42918 6.68368 0.912622 7.0924 0.525044 7.61148C0.455352 7.70431 0.425389 7.82102 0.441748 7.93593C0.458106 8.05085 0.519445 8.15456 0.61227 8.22425C0.705096 8.29395 0.821805 8.32391 0.936722 8.30755C1.05164 8.29119 1.15535 8.22985 1.22504 8.13703C1.48874 7.78258 1.83197 7.49499 2.22711 7.29742C2.62226 7.09985 3.05827 6.99781 3.50004 6.99953C3.61608 6.99953 3.72736 6.95343 3.8094 6.87139C3.89145 6.78934 3.93754 6.67806 3.93754 6.56203Z" fill="#131210"/>
</svg>
