<svg width="17" height="9" viewBox="0 0 17 9" fill="none" xmlns="http://www.w3.org/2000/svg">
<path d="M15.946 0.945969L8.44597 8.44597C8.3405 8.55131 8.19753 8.61047 8.04847 8.61047C7.89941 8.61047 7.75644 8.55131 7.65097 8.44597L0.150969 0.945969C0.0516087 0.839338 -0.00248353 0.698303 8.76355e-05 0.552578C0.0026588 0.406852 0.0616926 0.267813 0.164752 0.164753C0.267812 0.0616933 0.406851 0.0026588 0.552577 8.76344e-05C0.698303 -0.00248353 0.839338 0.0516094 0.945969 0.150969L8.04847 7.25253L15.151 0.150969C15.2576 0.0516094 15.3986 -0.00248353 15.5444 8.76344e-05C15.6901 0.0026588 15.8291 0.0616933 15.9322 0.164753C16.0352 0.267813 16.0943 0.406852 16.0969 0.552578C16.0994 0.698303 16.0453 0.839338 15.946 0.945969Z" fill="#131210"/>
</svg>
