<svg width="20" height="15" viewBox="0 0 20 15" fill="none" xmlns="http://www.w3.org/2000/svg">
<path d="M7.125 0H1.5C1.10218 0 0.720644 0.158035 0.43934 0.43934C0.158035 0.720644 0 1.10218 0 1.5V7.5C0 7.89782 0.158035 8.27936 0.43934 8.56066C0.720644 8.84196 1.10218 9 1.5 9H7.125V9.75C7.125 10.5456 6.80893 11.3087 6.24632 11.8713C5.68371 12.4339 4.92065 12.75 4.125 12.75C3.92609 12.75 3.73532 12.829 3.59467 12.9697C3.45402 13.1103 3.375 13.3011 3.375 13.5C3.375 13.6989 3.45402 13.8897 3.59467 14.0303C3.73532 14.171 3.92609 14.25 4.125 14.25C5.31809 14.2488 6.46197 13.7743 7.30561 12.9306C8.14925 12.087 8.62376 10.9431 8.625 9.75V1.5C8.625 1.10218 8.46696 0.720644 8.18566 0.43934C7.90436 0.158035 7.52282 0 7.125 0ZM7.125 7.5H1.5V1.5H7.125V7.5ZM18 0H12.375C11.9772 0 11.5956 0.158035 11.3143 0.43934C11.033 0.720644 10.875 1.10218 10.875 1.5V7.5C10.875 7.89782 11.033 8.27936 11.3143 8.56066C11.5956 8.84196 11.9772 9 12.375 9H18V9.75C18 10.5456 17.6839 11.3087 17.1213 11.8713C16.5587 12.4339 15.7956 12.75 15 12.75C14.8011 12.75 14.6103 12.829 14.4697 12.9697C14.329 13.1103 14.25 13.3011 14.25 13.5C14.25 13.6989 14.329 13.8897 14.4697 14.0303C14.6103 14.171 14.8011 14.25 15 14.25C16.1931 14.2488 17.337 13.7743 18.1806 12.9306C19.0243 12.087 19.4988 10.9431 19.5 9.75V1.5C19.5 1.10218 19.342 0.720644 19.0607 0.43934C18.7794 0.158035 18.3978 0 18 0ZM18 7.5H12.375V1.5H18V7.5Z" fill="#FCFCFD"/>
</svg>
