<svg width="115" height="27" viewBox="0 0 115 27" fill="none" xmlns="http://www.w3.org/2000/svg">
<path d="M13.266 0.881765C15.138 0.881765 16.848 1.18176 18.396 1.78176C19.956 2.38177 21.3 3.23977 22.428 4.35576C23.556 5.47177 24.426 6.80977 25.038 8.36977C25.65 9.91777 25.956 11.6398 25.956 13.5358C25.956 15.4438 25.632 17.1898 24.984 18.7738C24.336 20.3578 23.418 21.7258 22.23 22.8778C21.042 24.0298 19.638 24.9178 18.018 25.5418C16.41 26.1658 14.64 26.4778 12.708 26.4778C10.824 26.4778 9.10803 26.1778 7.56003 25.5778C6.01203 24.9778 4.67403 24.1198 3.54603 23.0038C2.41803 21.8878 1.54203 20.5498 0.91803 18.9898C0.30603 17.4298 2.98023e-05 15.7018 2.98023e-05 13.8058C2.98023e-05 11.8978 0.32403 10.1578 0.97203 8.58576C1.62003 7.00177 2.53803 5.63376 3.72603 4.48176C4.91403 3.32976 6.31203 2.44176 7.92003 1.81776C9.54003 1.19376 11.322 0.881765 13.266 0.881765ZM13.194 24.4618C14.454 24.4618 15.564 24.1198 16.524 23.4358C17.496 22.7398 18.258 21.6778 18.81 20.2498C19.362 18.8218 19.638 17.0038 19.638 14.7958C19.638 12.1798 19.35 9.99577 18.774 8.24376C18.21 6.47976 17.412 5.14776 16.38 4.24776C15.348 3.34776 14.148 2.89776 12.78 2.89776C11.52 2.89776 10.404 3.24576 9.43203 3.94176C8.46003 4.62576 7.69803 5.68176 7.14603 7.10976C6.59403 8.53776 6.31803 10.3558 6.31803 12.5638C6.31803 15.1678 6.60003 17.3518 7.16403 19.1158C7.74003 20.8798 8.54403 22.2118 9.57603 23.1118C10.62 24.0118 11.826 24.4618 13.194 24.4618ZM38.9037 12.5458C40.3317 12.5458 41.4597 12.1558 42.2877 11.3758C43.1277 10.5838 43.5477 9.42576 43.5477 7.90176C43.5477 6.91776 43.3677 6.08376 43.0077 5.39976C42.6597 4.71576 42.0957 4.19976 41.3157 3.85176C40.5477 3.49176 39.5337 3.31176 38.2737 3.31176H31.2177L32.4057 1.34976H40.7757C42.9117 1.34976 44.6217 1.61976 45.9057 2.15976C47.1897 2.69976 48.1197 3.43176 48.6957 4.35576C49.2717 5.26776 49.5597 6.28776 49.5597 7.41577C49.5597 8.50777 49.2837 9.49777 48.7317 10.3858C48.1917 11.2738 47.3817 11.9998 46.3017 12.5638C45.2337 13.1158 43.8957 13.4518 42.2877 13.5718V13.4998C43.4997 13.5478 44.4657 13.7278 45.1857 14.0398C45.9057 14.3398 46.4757 14.7778 46.8957 15.3538C47.3277 15.9298 47.6877 16.6618 47.9757 17.5498L49.5057 22.1218C49.7817 22.9138 50.0517 23.5018 50.3157 23.8858C50.5797 24.2578 50.8917 24.4918 51.2517 24.5878C51.6237 24.6838 52.0917 24.7318 52.6557 24.7318V26.0458C50.8437 26.1778 49.3737 26.2258 48.2457 26.1898C47.1297 26.1538 46.2477 26.0098 45.5997 25.7578C44.9637 25.5058 44.4717 25.1278 44.1237 24.6238C43.7877 24.1198 43.5057 23.4718 43.2777 22.6798L41.7297 17.6038C41.4777 16.7518 41.2137 16.1098 40.9377 15.6778C40.6737 15.2338 40.3497 14.9278 39.9657 14.7598C39.5937 14.5918 39.1137 14.5078 38.5257 14.5078H32.2077L31.0017 12.5458H38.9037ZM36.1677 1.34976V24.2638L38.8857 25.2718V26.0098H27.3297V25.2718L30.0477 24.2638V3.07776L27.3297 2.08776V1.34976H36.1677ZM58.2011 3.31176L59.1011 1.34976H66.3371C68.2451 1.34976 69.7871 1.60176 70.9631 2.10576C72.1511 2.59776 73.0211 3.28176 73.5731 4.15776C74.1251 5.02176 74.4011 5.99976 74.4011 7.09177C74.4011 8.67577 73.8311 9.98376 72.6911 11.0158C71.5631 12.0358 70.0691 12.6298 68.2091 12.7978L68.3891 12.5278C70.7531 12.6718 72.6071 13.3258 73.9511 14.4898C75.2951 15.6418 75.9671 17.1418 75.9671 18.9898C75.9671 20.3338 75.6311 21.5398 74.9591 22.6078C74.2871 23.6638 73.2311 24.4978 71.7911 25.1098C70.3511 25.7098 68.4731 26.0098 66.1571 26.0098H59.1191L58.2911 24.0478H64.3751C65.5271 24.0478 66.5111 23.8618 67.3271 23.4898C68.1551 23.1178 68.7911 22.5478 69.2351 21.7798C69.6791 21.0118 69.9011 20.0278 69.9011 18.8278C69.9011 17.8558 69.7151 16.9978 69.3431 16.2538C68.9711 15.5098 68.3951 14.9278 67.6151 14.5078C66.8471 14.0878 65.8571 13.8778 64.6451 13.8778H58.2731L58.2011 11.9158H64.5371C65.7731 11.9158 66.7451 11.5498 67.4531 10.8178C68.1731 10.0738 68.5331 8.96377 68.5331 7.48776C68.5331 6.65976 68.3651 5.93376 68.0291 5.30976C67.7051 4.68576 67.1951 4.19976 66.4991 3.85176C65.8031 3.49176 64.9091 3.31176 63.8171 3.31176H58.2011ZM52.8011 26.0098V25.2718L55.5191 24.2638V3.07776L52.8011 2.08776V1.34976H61.6391V26.0098H52.8011ZM88.8252 25.2718V26.0098H77.3592V25.2718L80.0232 24.2998V3.05976L77.3592 2.08776V1.34976H88.8252V2.08776L86.1432 3.05976V24.2998L88.8252 25.2718ZM99.0433 2.35777H105.163V24.2638L107.881 25.2718V26.0098H96.3253V25.2718L99.0433 24.2638V2.35777ZM111.895 3.32976H91.9873L94.2733 2.73576L90.7633 9.14376L89.8093 8.94576L90.7093 -0.000235319H91.2673L94.5613 1.79977L92.4193 1.34976H111.481L109.753 1.79977L113.065 -0.000235319H113.623L114.523 8.94576L113.569 9.14376L110.059 2.73576L111.895 3.32976Z" fill="#514F4A"/>
</svg>
