<svg width="146" height="28" viewBox="0 0 146 28" fill="none" xmlns="http://www.w3.org/2000/svg">
<path d="M16.092 2.28648L13.32 1.83647L15.642 0.000474691H16.2L17.64 8.62248L16.686 8.83848L12.726 2.91648L14.13 4.53648C13.374 3.88848 12.6 3.42048 11.808 3.13248C11.028 2.83248 10.23 2.68248 9.414 2.68248C7.938 2.68248 6.87 2.97648 6.21 3.56448C5.562 4.15248 5.238 4.93248 5.238 5.90448C5.238 6.58848 5.412 7.16448 5.76 7.63248C6.108 8.08848 6.582 8.48448 7.182 8.82048C7.782 9.14448 8.46 9.43848 9.216 9.70248C9.984 9.96648 10.782 10.2365 11.61 10.5125C12.438 10.8005 13.26 11.1365 14.076 11.5205C14.904 11.8925 15.66 12.3605 16.344 12.9245C17.028 13.4885 17.574 14.1965 17.982 15.0485C18.39 15.8885 18.594 16.9265 18.594 18.1625C18.594 19.9265 18.138 21.4265 17.226 22.6625C16.314 23.8865 15.084 24.8225 13.536 25.4705C11.988 26.1065 10.248 26.4245 8.316 26.4245C7.02 26.4245 5.85 26.3465 4.806 26.1905C3.762 26.0345 2.664 25.7465 1.512 25.3265L-7.15256e-07 18.1985H0.953999L6.246 25.3805L2.376 22.9325C3.384 23.4605 4.29 23.8505 5.094 24.1025C5.898 24.3425 6.744 24.4625 7.632 24.4625C8.988 24.4625 10.092 24.3005 10.944 23.9765C11.808 23.6525 12.444 23.1845 12.852 22.5725C13.272 21.9605 13.482 21.2285 13.482 20.3765C13.482 19.5365 13.272 18.8465 12.852 18.3065C12.432 17.7545 11.874 17.2985 11.178 16.9385C10.494 16.5665 9.738 16.2485 8.91 15.9845C8.094 15.7085 7.284 15.4265 6.48 15.1385C5.676 14.8385 4.908 14.5085 4.176 14.1485C3.456 13.7765 2.814 13.3265 2.25 12.7985C1.686 12.2705 1.242 11.6225 0.917999 10.8545C0.593999 10.0865 0.431999 9.16248 0.431999 8.08248C0.431999 6.60648 0.815999 5.32248 1.584 4.23047C2.352 3.13848 3.438 2.29248 4.842 1.69247C6.246 1.09247 7.89 0.792475 9.774 0.792475C10.962 0.792475 12.048 0.912475 13.032 1.15247C14.016 1.38048 15.036 1.75848 16.092 2.28648ZM36.8395 8.42448C36.8395 7.33248 36.6355 6.40248 36.2275 5.63448C35.8195 4.86648 35.1655 4.27848 34.2655 3.87048C33.3775 3.46247 32.1955 3.25847 30.7195 3.25847H25.4635L25.6075 1.27847H33.3835C35.6515 1.27847 37.4755 1.59647 38.8555 2.23248C40.2475 2.85648 41.2615 3.70248 41.8975 4.77048C42.5335 5.83848 42.8515 7.02048 42.8515 8.31648C42.8515 9.62448 42.5215 10.8305 41.8615 11.9345C41.2015 13.0385 40.1755 13.9205 38.7835 14.5805C37.3915 15.2405 35.5915 15.5705 33.3835 15.5705H25.6075L25.4635 13.5725H31.7275C32.7355 13.5725 33.6235 13.3805 34.3915 12.9965C35.1595 12.6005 35.7595 12.0185 36.1915 11.2505C36.6235 10.4825 36.8395 9.54048 36.8395 8.42448ZM29.1535 1.27847V24.2285L31.8355 25.2005V25.9385H20.3695V25.2005L23.0335 24.2285V2.98847L20.3695 2.01647V1.27847H29.1535ZM52.4101 24.2285L55.0921 25.2005V25.9385H43.6261V25.2005L46.2901 24.2285V2.98847L43.6261 2.01647V1.27847H55.0921V2.01647L52.4101 2.98847V24.2285ZM69.2041 24.2285L71.8861 25.2005V25.9385H60.4201V25.2005L63.0841 24.2285V2.98847L60.4201 2.01647V1.27847H71.8861V2.01647L69.2041 2.98847V24.2285ZM49.0801 14.2745V12.2945H66.4141V14.2745H49.0801ZM89.9989 7.97448L89.7289 13.0325L89.9989 18.0725H88.6669L87.6229 14.0765L79.6669 13.9325V12.1145L87.6229 11.9525L88.6669 7.97448H89.9989ZM95.2729 8.56848L94.3909 8.78448L90.2689 2.43047L92.2309 3.25847H78.9829V1.27847H90.9529L93.3109 0.0184755H93.7609L95.2729 8.56848ZM90.9349 24.7325L95.3809 17.9645L96.2089 18.1805L94.4629 27.2525H93.9409L91.5109 25.9385H78.9829V23.9585H92.5729L90.9349 24.7325ZM73.4569 25.9385V25.2005L76.1209 24.2285V2.98847L73.4569 2.01647V1.27847H82.2409V25.9385H73.4569ZM108.884 12.4745C110.312 12.4745 111.44 12.0845 112.268 11.3045C113.108 10.5125 113.528 9.35448 113.528 7.83048C113.528 6.84648 113.348 6.01248 112.988 5.32847C112.64 4.64448 112.076 4.12848 111.296 3.78048C110.528 3.42048 109.514 3.24048 108.254 3.24048H101.198L102.386 1.27847H110.756C112.892 1.27847 114.602 1.54847 115.886 2.08848C117.17 2.62848 118.1 3.36048 118.676 4.28448C119.252 5.19648 119.54 6.21648 119.54 7.34448C119.54 8.43648 119.264 9.42648 118.712 10.3145C118.172 11.2025 117.362 11.9285 116.282 12.4925C115.214 13.0445 113.876 13.3805 112.268 13.5005V13.4285C113.48 13.4765 114.446 13.6565 115.166 13.9685C115.886 14.2685 116.456 14.7065 116.876 15.2825C117.308 15.8585 117.668 16.5905 117.956 17.4785L119.486 22.0505C119.762 22.8425 120.032 23.4305 120.296 23.8145C120.56 24.1865 120.872 24.4205 121.232 24.5165C121.604 24.6125 122.072 24.6605 122.636 24.6605V25.9745C120.824 26.1065 119.354 26.1545 118.226 26.1185C117.11 26.0825 116.228 25.9385 115.58 25.6865C114.944 25.4345 114.452 25.0565 114.104 24.5525C113.768 24.0485 113.486 23.4005 113.258 22.6085L111.71 17.5325C111.458 16.6805 111.194 16.0385 110.918 15.6065C110.654 15.1625 110.33 14.8565 109.946 14.6885C109.574 14.5205 109.094 14.4365 108.506 14.4365H102.188L100.982 12.4745H108.884ZM106.148 1.27847V24.1925L108.866 25.2005V25.9385H97.3103V25.2005L100.028 24.1925V3.00648L97.3103 2.01647V1.27847H106.148ZM139.36 7.97448L139.09 13.0325L139.36 18.0725H138.028L136.984 14.0765L129.028 13.9325V12.1145L136.984 11.9525L138.028 7.97448H139.36ZM144.634 8.56848L143.752 8.78448L139.63 2.43047L141.592 3.25847H128.344V1.27847H140.314L142.672 0.0184755H143.122L144.634 8.56848ZM140.296 24.7325L144.742 17.9645L145.57 18.1805L143.824 27.2525H143.302L140.872 25.9385H128.344V23.9585H141.934L140.296 24.7325ZM122.818 25.9385V25.2005L125.482 24.2285V2.98847L122.818 2.01647V1.27847H131.602V25.9385H122.818Z" fill="#514F4A"/>
</svg>
