<svg width="124" height="28" viewBox="0 0 124 28" fill="none" xmlns="http://www.w3.org/2000/svg">
<path d="M3.14995 24.2465V3.36648L-4.78253e-05 1.92647V1.27847H9.68395L22.716 19.8365L21.42 20.9525V2.98847L18.468 2.01647V1.27847H26.028V2.01647L23.328 2.98847V26.0645H19.782L4.24795 3.69048L4.98595 3.13248V24.2465L7.93795 25.2005V25.9385H0.431952V25.2005L3.14995 24.2465ZM43.8679 7.97448L43.5979 13.0325L43.8679 18.0725H42.5359L41.4919 14.0765L33.5359 13.9325V12.1145L41.4919 11.9525L42.5359 7.97448H43.8679ZM49.1419 8.56848L48.2599 8.78448L44.1379 2.43047L46.0999 3.25847H32.8519V1.27847H44.8219L47.1799 0.0184755H47.6299L49.1419 8.56848ZM44.8039 24.7325L49.2499 17.9645L50.0779 18.1805L48.3319 27.2525H47.8099L45.3799 25.9385H32.8519V23.9585H46.4419L44.8039 24.7325ZM27.3259 25.9385V25.2005L29.9899 24.2285V2.98847L27.3259 2.01647V1.27847H36.1099V25.9385H27.3259ZM63.1321 14.5085L55.0681 24.2105L57.8761 25.2005V25.9385H50.0641V25.2005L52.7281 24.1925L62.1241 13.1405L64.0321 11.7725L71.1421 3.00648L68.3161 2.01647V1.27847H76.1461V2.01647L73.4821 3.02448L65.0581 13.1045L63.1321 14.5085ZM68.1541 24.1925L61.8901 15.3725L61.3861 14.8145L52.9261 3.06048L50.2261 2.01647V1.27847H63.2401V2.01647L60.2341 3.02448L65.5261 10.5125L66.0661 11.0885L75.4981 24.1565L78.1981 25.2005V25.9385H65.1661V25.2005L68.1541 24.1925ZM99.5976 16.0205V2.98847L96.7356 2.01647V1.27847H104.17V2.01647L101.506 2.98847V16.0385C101.506 18.3305 101.092 20.2505 100.264 21.7985C99.4476 23.3345 98.2536 24.4865 96.6816 25.2545C95.1096 26.0225 93.2016 26.4065 90.9576 26.4065C88.4976 26.4065 86.4276 26.0225 84.7476 25.2545C83.0676 24.4865 81.7956 23.3225 80.9316 21.7625C80.0796 20.1905 79.6536 18.2345 79.6536 15.8945V2.98847L76.9716 2.01647V1.27847H88.4376V2.01647L85.7736 2.98847V15.9485C85.7736 17.5325 86.0256 18.8405 86.5296 19.8725C87.0336 20.9045 87.7896 21.6785 88.7976 22.1945C89.8056 22.6985 91.0656 22.9505 92.5776 22.9505C94.0656 22.9505 95.3316 22.7045 96.3756 22.2125C97.4196 21.7085 98.2176 20.9465 98.7696 19.9265C99.3216 18.8945 99.5976 17.5925 99.5976 16.0205ZM121.454 2.28648L118.682 1.83647L121.004 0.000474691H121.562L123.002 8.62248L122.048 8.83848L118.088 2.91648L119.492 4.53648C118.736 3.88848 117.962 3.42048 117.17 3.13248C116.39 2.83248 115.592 2.68248 114.776 2.68248C113.3 2.68248 112.232 2.97648 111.572 3.56448C110.924 4.15248 110.6 4.93248 110.6 5.90448C110.6 6.58848 110.774 7.16448 111.122 7.63248C111.47 8.08848 111.944 8.48448 112.544 8.82048C113.144 9.14448 113.822 9.43848 114.578 9.70248C115.346 9.96648 116.144 10.2365 116.972 10.5125C117.8 10.8005 118.622 11.1365 119.438 11.5205C120.266 11.8925 121.022 12.3605 121.706 12.9245C122.39 13.4885 122.936 14.1965 123.344 15.0485C123.752 15.8885 123.956 16.9265 123.956 18.1625C123.956 19.9265 123.5 21.4265 122.588 22.6625C121.676 23.8865 120.446 24.8225 118.898 25.4705C117.35 26.1065 115.61 26.4245 113.678 26.4245C112.382 26.4245 111.212 26.3465 110.168 26.1905C109.124 26.0345 108.026 25.7465 106.874 25.3265L105.362 18.1985H106.316L111.608 25.3805L107.738 22.9325C108.746 23.4605 109.652 23.8505 110.456 24.1025C111.26 24.3425 112.106 24.4625 112.994 24.4625C114.35 24.4625 115.454 24.3005 116.306 23.9765C117.17 23.6525 117.806 23.1845 118.214 22.5725C118.634 21.9605 118.844 21.2285 118.844 20.3765C118.844 19.5365 118.634 18.8465 118.214 18.3065C117.794 17.7545 117.236 17.2985 116.54 16.9385C115.856 16.5665 115.1 16.2485 114.272 15.9845C113.456 15.7085 112.646 15.4265 111.842 15.1385C111.038 14.8385 110.27 14.5085 109.538 14.1485C108.818 13.7765 108.176 13.3265 107.612 12.7985C107.048 12.2705 106.604 11.6225 106.28 10.8545C105.956 10.0865 105.794 9.16248 105.794 8.08248C105.794 6.60648 106.178 5.32248 106.946 4.23047C107.714 3.13848 108.8 2.29248 110.204 1.69247C111.608 1.09247 113.252 0.792475 115.136 0.792475C116.324 0.792475 117.41 0.912475 118.394 1.15247C119.378 1.38048 120.398 1.75848 121.454 2.28648Z" fill="#514F4A"/>
</svg>
