<svg width="97" height="28" viewBox="0 0 97 28" fill="none" xmlns="http://www.w3.org/2000/svg">
<path d="M2.71799 3.11376L-1.49012e-05 2.08776V1.34976H12.42V2.08776L9.35999 3.07776L17.1 21.5458L16.128 21.7258L22.716 3.05976L19.782 2.06976V1.34976H27.54V2.06976L24.876 3.07776L16.308 26.1358H12.654L2.71799 3.11376ZM39.5049 0.881765C41.3769 0.881765 43.0869 1.18176 44.6349 1.78176C46.1949 2.38177 47.5389 3.23977 48.6669 4.35576C49.7949 5.47177 50.6649 6.80977 51.2769 8.36977C51.8889 9.91777 52.1949 11.6398 52.1949 13.5358C52.1949 15.4438 51.8709 17.1898 51.2229 18.7738C50.5749 20.3578 49.6569 21.7258 48.4689 22.8778C47.2809 24.0298 45.8769 24.9178 44.2569 25.5418C42.6489 26.1658 40.8789 26.4778 38.9469 26.4778C37.0629 26.4778 35.3469 26.1778 33.7989 25.5778C32.2509 24.9778 30.9129 24.1198 29.7849 23.0038C28.6569 21.8878 27.7809 20.5498 27.1569 18.9898C26.5449 17.4298 26.2389 15.7018 26.2389 13.8058C26.2389 11.8978 26.5629 10.1578 27.2109 8.58576C27.8589 7.00177 28.7769 5.63376 29.9649 4.48176C31.1529 3.32976 32.5509 2.44176 34.1589 1.81776C35.7789 1.19376 37.5609 0.881765 39.5049 0.881765ZM39.4329 24.4618C40.6929 24.4618 41.8029 24.1198 42.7629 23.4358C43.7349 22.7398 44.4969 21.6778 45.0489 20.2498C45.6009 18.8218 45.8769 17.0038 45.8769 14.7958C45.8769 12.1798 45.5889 9.99577 45.0129 8.24376C44.4489 6.47976 43.6509 5.14776 42.6189 4.24776C41.5869 3.34776 40.3869 2.89776 39.0189 2.89776C37.7589 2.89776 36.6429 3.24576 35.6709 3.94176C34.6989 4.62576 33.9369 5.68176 33.3849 7.10976C32.8329 8.53776 32.5569 10.3558 32.5569 12.5638C32.5569 15.1678 32.8389 17.3518 33.4029 19.1158C33.9789 20.8798 34.7829 22.2118 35.8149 23.1118C36.8589 24.0118 38.0649 24.4618 39.4329 24.4618ZM73.5845 27.4138H72.9546L70.3445 26.0098H59.1305V24.0298H71.8025L69.7686 24.7678L74.5925 17.6938L75.4926 17.9098L73.5845 27.4138ZM62.3885 3.05976V26.0098H53.6045V25.2718L56.2685 24.2998V3.05976L53.6045 2.08776V1.34976H65.0705V2.08776L62.3885 3.05976ZM81.23 2.35777H87.35V24.2638L90.068 25.2718V26.0098H78.512V25.2718L81.23 24.2638V2.35777ZM94.082 3.32976H74.174L76.46 2.73576L72.95 9.14376L71.996 8.94576L72.896 -0.000235319H73.454L76.748 1.79977L74.606 1.34976H93.668L91.94 1.79977L95.252 -0.000235319H95.81L96.71 8.94576L95.756 9.14376L92.246 2.73576L94.082 3.32976Z" fill="#514F4A"/>
</svg>
