<svg width="153" height="27" viewBox="0 0 153 27" fill="none" xmlns="http://www.w3.org/2000/svg">
<path d="M19.98 26.1901H19.35L16.74 24.7861H5.52602V22.8061H18.198L16.164 23.5441L20.988 16.4701L21.888 16.6861L19.98 26.1901ZM8.78402 1.83613V24.7861H2.25157e-05V24.0481L2.66402 23.0761V1.83613L2.25157e-05 0.864131V0.126131H11.466V0.864131L8.78402 1.83613ZM44.1987 14.8681V1.83613L41.3367 0.864131V0.126131H48.7707V0.864131L46.1067 1.83613V14.8861C46.1067 17.1781 45.6927 19.0981 44.8647 20.6461C44.0487 22.1821 42.8547 23.3341 41.2827 24.1021C39.7107 24.8701 37.8027 25.2541 35.5587 25.2541C33.0987 25.2541 31.0287 24.8701 29.3487 24.1021C27.6687 23.3341 26.3967 22.1701 25.5327 20.6101C24.6807 19.0381 24.2547 17.0821 24.2547 14.7421V1.83613L21.5727 0.864131V0.126131H33.0387V0.864131L30.3747 1.83613V14.7961C30.3747 16.3801 30.6267 17.6881 31.1307 18.7201C31.6347 19.7521 32.3907 20.5261 33.3987 21.0421C34.4067 21.5461 35.6667 21.7981 37.1787 21.7981C38.6667 21.7981 39.9327 21.5521 40.9767 21.0601C42.0207 20.5561 42.8187 19.7941 43.3707 18.7741C43.9227 17.7421 44.1987 16.4401 44.1987 14.8681ZM82.8315 22.9861L85.6755 24.0481V24.7861H73.6155V24.0481L76.5675 23.1661L75.0735 3.42013L75.3435 3.45613L66.9915 24.9121H63.3735L54.8415 3.52813L55.1115 3.47413L53.9415 23.0761L56.8575 24.0481V24.7861H49.0455V24.0481L51.9075 23.0761L53.2935 2.16013L50.2695 0.864131V0.126131H60.1335L67.5675 19.1521L67.1355 19.1341L74.5335 0.126131H83.9835V0.864131L81.0855 1.85413L82.8315 22.9861ZM97.9349 24.0481V24.7861H86.4689V24.0481L89.1329 23.0761V1.83613L86.4689 0.864131V0.126131H97.9349V0.864131L95.2529 1.83613V23.0761L97.9349 24.0481ZM102.267 23.0941V2.21413L99.117 0.774131V0.126131H108.801L121.833 18.6841L120.537 19.8001V1.83613L117.585 0.864131V0.126131H125.145V0.864131L122.445 1.83613V24.9121H118.899L103.365 2.53813L104.103 1.98013V23.0941L107.055 24.0481V24.7861H99.549V24.0481L102.267 23.0941ZM130.882 16.5601V14.6701H143.248V16.5601H130.882ZM150.178 23.0221L152.896 24.0481V24.7861H140.62V24.0481L143.626 23.0581L135.778 4.59013L136.642 4.41013L129.334 23.0761L132.268 24.0661V24.7861H124.402V24.0661L127.156 23.0581L136.498 0.00013113H140.152L150.178 23.0221Z" fill="#514F4A"/>
</svg>
