<svg width="16" height="13" viewBox="0 0 16 13" fill="none" xmlns="http://www.w3.org/2000/svg">
<path d="M14.5 5H13.7069L11.5 2.79312C11.4075 2.69986 11.2973 2.62592 11.176 2.5756C11.0546 2.52528 10.9245 2.49958 10.7931 2.5H8.25V1H9.75C9.88261 1 10.0098 0.947321 10.1036 0.853553C10.1973 0.759785 10.25 0.632608 10.25 0.5C10.25 0.367392 10.1973 0.240215 10.1036 0.146447C10.0098 0.0526784 9.88261 0 9.75 0H5.75C5.61739 0 5.49021 0.0526784 5.39645 0.146447C5.30268 0.240215 5.25 0.367392 5.25 0.5C5.25 0.632608 5.30268 0.759785 5.39645 0.853553C5.49021 0.947321 5.61739 1 5.75 1H7.25V2.5H3.5C3.23478 2.5 2.98043 2.60536 2.79289 2.79289C2.60536 2.98043 2.5 3.23478 2.5 3.5V6.75H1V5.25C1 5.11739 0.947322 4.99021 0.853553 4.89645C0.759785 4.80268 0.632608 4.75 0.5 4.75C0.367392 4.75 0.240215 4.80268 0.146447 4.89645C0.0526784 4.99021 0 5.11739 0 5.25V9.25C0 9.38261 0.0526784 9.50979 0.146447 9.60355C0.240215 9.69732 0.367392 9.75 0.5 9.75C0.632608 9.75 0.759785 9.69732 0.853553 9.60355C0.947322 9.50979 1 9.38261 1 9.25V7.75H2.5V9.04312C2.49958 9.17449 2.52528 9.30464 2.5756 9.42599C2.62592 9.54734 2.69986 9.65748 2.79312 9.75L5.25 12.2069C5.34252 12.3001 5.45266 12.3741 5.57401 12.4244C5.69536 12.4747 5.8255 12.5004 5.95687 12.5H10.7931C10.9245 12.5004 11.0546 12.4747 11.176 12.4244C11.2973 12.3741 11.4075 12.3001 11.5 12.2069L13.7069 10H14.5C14.7652 10 15.0196 9.89464 15.2071 9.70711C15.3946 9.51957 15.5 9.26522 15.5 9V6C15.5 5.73478 15.3946 5.48043 15.2071 5.29289C15.0196 5.10536 14.7652 5 14.5 5ZM14.5 9H13.5C13.4343 8.99995 13.3693 9.01284 13.3086 9.03793C13.2479 9.06302 13.1927 9.09983 13.1462 9.14625L10.7931 11.5H5.95687L3.5 9.04312V3.5H10.7931L13.1462 5.85375C13.1927 5.90017 13.2479 5.93697 13.3086 5.96207C13.3693 5.98716 13.4343 6.00005 13.5 6H14.5V9Z" fill="#1A56DB"/>
</svg>
