<svg width="13" height="13" viewBox="0 0 13 13" fill="none" xmlns="http://www.w3.org/2000/svg">
<path d="M12.2147 2.95734C12.1701 2.81827 12.0851 2.69568 11.9704 2.60527C11.8557 2.51485 11.7167 2.46073 11.571 2.44984L9.55087 2.29015L8.77376 0.44937C8.717 0.316068 8.62229 0.202396 8.50143 0.122498C8.38057 0.0425991 8.23888 0 8.09399 0C7.94911 0 7.80742 0.0425991 7.68656 0.122498C7.56569 0.202396 7.47099 0.316068 7.41423 0.44937L6.63712 2.29015L4.61696 2.44984C4.4719 2.46053 4.3333 2.51418 4.21885 2.60395C4.10439 2.69372 4.01927 2.81554 3.97433 2.95389C3.92939 3.09223 3.92667 3.24082 3.96651 3.38072C4.00636 3.52061 4.08697 3.64547 4.19806 3.73937L5.73259 5.03437L5.26446 6.96976C5.23041 7.10993 5.23874 7.25704 5.2884 7.39247C5.33805 7.52789 5.42679 7.64553 5.54337 7.73046C5.66103 7.8172 5.80178 7.86708 5.9478 7.87379C6.09382 7.88051 6.23855 7.84376 6.36368 7.7682L8.09399 6.7264L9.82485 7.76875C9.95005 7.8441 10.0947 7.88072 10.2407 7.87401C10.3867 7.86729 10.5274 7.81754 10.6452 7.73101C10.7615 7.64591 10.8501 7.52823 10.8996 7.39284C10.9492 7.25745 10.9575 7.11042 10.9235 6.97031L10.4554 5.03492L11.9899 3.73992C12.1011 3.64668 12.1818 3.52239 12.2219 3.38296C12.2619 3.24354 12.2594 3.09534 12.2147 2.95734ZM9.68431 4.5389C9.62222 4.59137 9.57598 4.66009 9.55077 4.73737C9.52556 4.81464 9.52237 4.89742 9.54157 4.9764L9.99438 6.84726L8.31985 5.84046C8.25175 5.79948 8.17376 5.77782 8.09427 5.77782C8.01478 5.77782 7.93679 5.79948 7.86868 5.84046L6.19415 6.84835L6.64696 4.9764C6.6661 4.89737 6.66283 4.81456 6.63752 4.73728C6.61221 4.66 6.56586 4.59131 6.50368 4.5389L5.03149 3.29531L6.97399 3.14164C7.05394 3.13529 7.13061 3.10709 7.19561 3.06012C7.26062 3.01315 7.31146 2.94922 7.34259 2.87531L8.09399 1.08867L8.84813 2.87531C8.87926 2.94922 8.9301 3.01315 8.99511 3.06012C9.06012 3.10709 9.13678 3.13529 9.21673 3.14164L11.1598 3.29531L9.68431 4.5389ZM3.94212 5.86125L0.747275 9.05937C0.665182 9.14146 0.55384 9.18758 0.437743 9.18758C0.321647 9.18758 0.210305 9.14146 0.128212 9.05937C0.0461193 8.97728 0 8.86594 0 8.74984C0 8.63374 0.0461193 8.5224 0.128212 8.44031L3.3247 5.24382C3.40679 5.16173 3.51813 5.11561 3.63423 5.11561C3.75032 5.11561 3.86167 5.16173 3.94376 5.24382C4.02585 5.32592 4.07197 5.43726 4.07197 5.55336C4.07197 5.66945 4.02585 5.78079 3.94376 5.86289L3.94212 5.86125ZM4.53329 8.58851C4.61528 8.67055 4.66133 8.78179 4.66133 8.89777C4.66133 9.01375 4.61528 9.12499 4.53329 9.20703L1.62227 12.1219C1.58163 12.1625 1.53337 12.1948 1.48026 12.2168C1.42715 12.2388 1.37023 12.2501 1.31274 12.2501C1.25526 12.2501 1.19834 12.2388 1.14523 12.2168C1.09212 12.1948 1.04386 12.1625 1.00321 12.1219C0.962564 12.0812 0.93032 12.033 0.908321 11.9799C0.886323 11.9267 0.875 11.8698 0.875 11.8123C0.875 11.7549 0.886323 11.6979 0.908321 11.6448C0.93032 11.5917 0.962564 11.5435 1.00321 11.5028L3.91642 8.59015C3.99845 8.50817 4.10969 8.46211 4.22567 8.46211C4.34166 8.46211 4.45289 8.50817 4.53493 8.59015L4.53329 8.58851ZM8.52548 8.53382C8.56616 8.57446 8.59842 8.62271 8.62044 8.67582C8.64246 8.72893 8.65379 8.78586 8.65379 8.84335C8.65379 8.90085 8.64246 8.95778 8.62044 9.01089C8.59842 9.064 8.56616 9.11225 8.52548 9.15289L5.55704 12.1213C5.47495 12.2034 5.36361 12.2495 5.24751 12.2495C5.13141 12.2495 5.02007 12.2034 4.93798 12.1213C4.85588 12.0392 4.80977 11.9279 4.80977 11.8118C4.80977 11.6957 4.85588 11.5844 4.93798 11.5023L7.90696 8.53382C7.94767 8.49285 7.99609 8.46035 8.04942 8.43818C8.10275 8.41602 8.15995 8.40463 8.2177 8.40469C8.27546 8.40474 8.33263 8.41622 8.38592 8.43848C8.43922 8.46074 8.48758 8.49333 8.52821 8.53437L8.52548 8.53382Z" fill="#1A56DB"/>
</svg>
