<svg width="14" height="14" viewBox="0 0 14 14" fill="none" xmlns="http://www.w3.org/2000/svg">
<path opacity="0.2" d="M10.6542 8.28119L7.64148 9.39135L6.53133 12.4041C6.50066 12.4872 6.44528 12.5588 6.37262 12.6095C6.29997 12.6601 6.21355 12.6872 6.125 12.6872C6.03645 12.6872 5.95003 12.6601 5.87737 12.6095C5.80472 12.5588 5.74933 12.4872 5.71867 12.4041L4.60851 9.39135L1.59578 8.28119C1.51271 8.25053 1.44103 8.19514 1.3904 8.12249C1.33978 8.04984 1.31264 7.96341 1.31264 7.87486C1.31264 7.78631 1.33978 7.69989 1.3904 7.62724C1.44103 7.55459 1.51271 7.4992 1.59578 7.46853L4.60851 6.35838L5.71867 3.34564C5.74933 3.26257 5.80472 3.19089 5.87737 3.14027C5.95003 3.08964 6.03645 3.0625 6.125 3.0625C6.21355 3.0625 6.29997 3.08964 6.37262 3.14027C6.44528 3.19089 6.50066 3.26257 6.53133 3.34564L7.64148 6.35838L10.6542 7.46853C10.7373 7.4992 10.809 7.55459 10.8596 7.62724C10.9102 7.69989 10.9374 7.78631 10.9374 7.87486C10.9374 7.96341 10.9102 8.04984 10.8596 8.12249C10.809 8.19514 10.7373 8.25053 10.6542 8.28119Z" fill="#1A56DB"/>
<path d="M10.8052 7.05797L7.98437 6.01562L6.94531 3.19266C6.88378 3.02549 6.77245 2.88123 6.62635 2.77932C6.48025 2.67742 6.30641 2.62278 6.12828 2.62278C5.95015 2.62278 5.77631 2.67742 5.63021 2.77932C5.4841 2.88123 5.37278 3.02549 5.31125 3.19266L4.26562 6.01562L1.44265 7.05469C1.27549 7.11622 1.13122 7.22755 1.02932 7.37365C0.927411 7.51975 0.872772 7.69359 0.872772 7.87172C0.872772 8.04985 0.927411 8.22369 1.02932 8.36979C1.13122 8.51589 1.27549 8.62722 1.44265 8.68875L4.26562 9.73438L5.30468 12.5573C5.36622 12.7245 5.47754 12.8688 5.62364 12.9707C5.76974 13.0726 5.94359 13.1272 6.12171 13.1272C6.29984 13.1272 6.47369 13.0726 6.61979 12.9707C6.76589 12.8688 6.87721 12.7245 6.93875 12.5573L7.98437 9.73438L10.8073 8.69531C10.9745 8.63378 11.1188 8.52245 11.2207 8.37635C11.3226 8.23025 11.3772 8.05641 11.3772 7.87828C11.3772 7.70015 11.3226 7.52631 11.2207 7.38021C11.1188 7.23411 10.9745 7.12278 10.8073 7.06125L10.8052 7.05797ZM7.49218 8.98078C7.4328 9.00267 7.37887 9.03718 7.33411 9.08193C7.28936 9.12668 7.25485 9.18061 7.23296 9.24L6.125 12.2418L5.01921 9.24219C4.99736 9.18218 4.96264 9.12768 4.91748 9.08252C4.87232 9.03736 4.81782 9.00263 4.75781 8.98078L1.7582 7.875L4.75781 6.76922C4.81782 6.74737 4.87232 6.71264 4.91748 6.66748C4.96264 6.62232 4.99736 6.56782 5.01921 6.50781L6.125 3.5082L7.23078 6.50781C7.25266 6.5672 7.28717 6.62113 7.33193 6.66588C7.37668 6.71063 7.43061 6.74514 7.49 6.76703L10.4918 7.875L7.49218 8.98078ZM7.875 2.1875C7.875 2.07147 7.92109 1.96019 8.00314 1.87814C8.08518 1.79609 8.19646 1.75 8.3125 1.75H9.1875V0.875C9.1875 0.758968 9.23359 0.647688 9.31564 0.565641C9.39768 0.483594 9.50896 0.4375 9.625 0.4375C9.74103 0.4375 9.85231 0.483594 9.93435 0.565641C10.0164 0.647688 10.0625 0.758968 10.0625 0.875V1.75H10.9375C11.0535 1.75 11.1648 1.79609 11.2469 1.87814C11.3289 1.96019 11.375 2.07147 11.375 2.1875C11.375 2.30353 11.3289 2.41481 11.2469 2.49686C11.1648 2.57891 11.0535 2.625 10.9375 2.625H10.0625V3.5C10.0625 3.61603 10.0164 3.72731 9.93435 3.80936C9.85231 3.89141 9.74103 3.9375 9.625 3.9375C9.50896 3.9375 9.39768 3.89141 9.31564 3.80936C9.23359 3.72731 9.1875 3.61603 9.1875 3.5V2.625H8.3125C8.19646 2.625 8.08518 2.57891 8.00314 2.49686C7.92109 2.41481 7.875 2.30353 7.875 2.1875ZM13.5625 4.8125C13.5625 4.92853 13.5164 5.03981 13.4344 5.12186C13.3523 5.20391 13.241 5.25 13.125 5.25H12.6875V5.6875C12.6875 5.80353 12.6414 5.91481 12.5594 5.99686C12.4773 6.07891 12.366 6.125 12.25 6.125C12.134 6.125 12.0227 6.07891 11.9406 5.99686C11.8586 5.91481 11.8125 5.80353 11.8125 5.6875V5.25H11.375C11.259 5.25 11.1477 5.20391 11.0656 5.12186C10.9836 5.03981 10.9375 4.92853 10.9375 4.8125C10.9375 4.69647 10.9836 4.58519 11.0656 4.50314C11.1477 4.42109 11.259 4.375 11.375 4.375H11.8125V3.9375C11.8125 3.82147 11.8586 3.71019 11.9406 3.62814C12.0227 3.54609 12.134 3.5 12.25 3.5C12.366 3.5 12.4773 3.54609 12.5594 3.62814C12.6414 3.71019 12.6875 3.82147 12.6875 3.9375V4.375H13.125C13.241 4.375 13.3523 4.42109 13.4344 4.50314C13.5164 4.58519 13.5625 4.69647 13.5625 4.8125Z" fill="#1A56DB"/>
</svg>
