<svg width="203" height="88" viewBox="0 0 203 88" fill="none" xmlns="http://www.w3.org/2000/svg">
<path d="M45.7754 24.211C46.1797 23.8556 45.7142 23.2242 45.2551 23.5054L17.8897 40.2636C17.7591 40.3436 17.6794 40.4857 17.6794 40.6389V43.447C17.6794 43.6312 17.7942 43.7959 17.9669 43.8597L21.7396 45.254C21.7885 45.272 21.8401 45.2812 21.8922 45.2812L35.4855 45.2812C35.8913 45.2812 36.0808 45.7837 35.7761 46.0517L18.2501 61.4626C17.8458 61.818 18.3114 62.4494 18.7704 62.1682L46.1334 45.4115C46.2654 45.3307 46.3452 45.1866 46.3436 45.0319L46.3158 42.2225C46.314 42.0404 46.2001 41.8782 46.0294 41.8146L42.2864 40.42C42.2373 40.4017 42.1852 40.3924 42.1328 40.3924H28.54C28.1343 40.3924 27.9448 39.8899 28.2495 39.6219L45.7754 24.211Z" fill="url(#paint0_linear_15086_1899)"/>
<path d="M65.1085 50.7716L61.4653 59.4044L49.4005 35.1692L46.2853 33.8492V32.714H60.6997V33.902L57.7429 34.9052L65.1085 50.7716ZM53.3077 69.806C52.1637 69.806 51.2133 69.4892 50.4565 68.8556C49.7173 68.2396 49.3477 67.386 49.3477 66.2948C49.3477 65.6964 49.4621 65.186 49.6909 64.7636C49.9373 64.3412 50.2365 64.0068 50.5885 63.7604C50.9405 63.5316 51.2749 63.4172 51.5917 63.4172C51.8909 63.4172 52.1989 63.4876 52.5157 63.6284C52.8501 63.7868 53.2373 63.9364 53.6773 64.0772C54.1349 64.2356 54.6717 64.3148 55.2877 64.3148C55.9037 64.3148 56.4581 64.218 56.9509 64.0244C57.4437 63.8484 57.9101 63.4964 58.3501 62.9684C58.7901 62.458 59.2477 61.71 59.7229 60.7244L62.6269 54.3884L64.0525 50.9564L69.7813 34.7732L66.9829 33.902V32.714H75.5629V33.902L72.9757 34.8524L62.3365 60.9092C61.3509 63.3204 60.4093 65.1684 59.5117 66.4532C58.6317 67.738 57.6989 68.618 56.7133 69.0932C55.7453 69.5684 54.6101 69.806 53.3077 69.806Z" fill="#131210"/>
<path d="M87.5659 37.466V53.8076L90.3643 54.9956V56.0252H76.8475V54.9956L80.0419 53.6492V38.5484C79.6371 38.0028 79.1619 37.5452 78.6163 37.1756C78.0883 36.7884 77.4107 36.41 76.5835 36.0404V35.09L85.5067 32.0012H86.3251L87.5659 37.466ZM92.8459 54.9956L95.6443 53.8076V40.9508C95.6443 40.1412 95.5035 39.4812 95.2219 38.9708C94.9403 38.4428 94.5091 38.0556 93.9283 37.8092C93.3651 37.5452 92.6435 37.4132 91.7635 37.4132C90.7251 37.4132 89.7659 37.5628 88.8859 37.862C88.0235 38.1612 87.3195 38.5484 86.7739 39.0236L85.7971 37.994C86.9411 36.7444 87.9707 35.7324 88.8859 34.958C89.8011 34.166 90.6547 33.5676 91.4467 33.1628C92.2387 32.7404 93.0219 32.45 93.7963 32.2916C94.5707 32.1332 95.3891 32.054 96.2515 32.054C98.5923 32.054 100.326 32.758 101.452 34.166C102.596 35.574 103.168 37.7388 103.168 40.6604V53.6492L106.389 54.9956V56.0252H92.8459V54.9956Z" fill="#131210"/>
<path d="M122.06 43.3268L125.149 39.4724L135.049 53.6756L137.847 54.9956V56.0252H124.251V54.9956L126.522 53.9132L119.922 44.3828H115.777V41.7164H120.687L128.343 35.0108L125.07 33.902V32.714H135.92V33.902L132.25 35.0636L122.06 43.3268ZM118.258 53.7284L121.162 54.9956V56.0252H107.566V54.9956L110.761 53.6492V25.1636C110.479 24.8116 110.154 24.486 109.784 24.1868C109.432 23.87 109.001 23.562 108.49 23.2628C107.998 22.946 107.408 22.6204 106.722 22.286V21.1772L117.862 18.194H118.681L118.258 23.7908V53.7284Z" fill="#131210"/>
<path d="M156.706 32.2916C157.815 32.2916 158.607 32.5996 159.082 33.2156C159.575 33.8316 159.821 34.5796 159.821 35.4596C159.821 36.6916 159.425 37.6244 158.633 38.258C157.859 38.8916 156.996 39.2084 156.046 39.2084C155.324 39.2084 154.726 39.138 154.251 38.9972C153.793 38.8388 153.353 38.6892 152.931 38.5484C152.526 38.39 152.033 38.3108 151.452 38.3108C151.047 38.3108 150.643 38.3636 150.238 38.4692C149.833 38.5572 149.446 38.7068 149.076 38.918C148.707 39.1116 148.346 39.3668 147.994 39.6836L147.439 38.3372C148.425 37.246 149.34 36.322 150.185 35.5652C151.03 34.8084 151.831 34.1924 152.587 33.7172C153.344 33.2244 154.057 32.8636 154.726 32.6348C155.412 32.406 156.072 32.2916 156.706 32.2916ZM149.235 37.3868V53.5436L152.825 54.9956V56.0252H138.516V54.9956L141.711 53.6492V38.5484C141.429 38.1612 141.121 37.8356 140.787 37.5716C140.452 37.29 140.083 37.026 139.678 36.7796C139.273 36.5332 138.807 36.2868 138.279 36.0404V35.09L147.783 32.0012H148.601L149.235 37.3868Z" fill="#131210"/>
<path d="M174.945 41.3996L175.077 43.6172C173.617 43.9692 172.429 44.3476 171.513 44.7524C170.598 45.1396 169.894 45.5444 169.401 45.9668C168.909 46.3892 168.565 46.8468 168.372 47.3396C168.196 47.8148 168.108 48.334 168.108 48.8972C168.108 50.0588 168.354 50.9036 168.847 51.4316C169.357 51.9596 170.008 52.2236 170.801 52.2236C171.364 52.2236 171.865 52.074 172.305 51.7748C172.763 51.4756 173.124 51.0796 173.388 50.5868C173.652 50.0764 173.784 49.5044 173.784 48.8708V38.5748C173.784 37.5012 173.485 36.6564 172.886 36.0404C172.305 35.4068 171.381 35.09 170.114 35.09C169.586 35.09 169.04 35.1428 168.477 35.2484C167.914 35.354 167.404 35.5036 166.946 35.6972L167.87 33.902C167.747 34.9404 167.615 35.794 167.474 36.4628C167.351 37.114 167.219 37.6332 167.078 38.0204C166.937 38.39 166.761 38.6892 166.55 38.918C166.269 39.2524 165.864 39.5252 165.336 39.7364C164.825 39.93 164.28 40.0268 163.699 40.0268C162.925 40.0268 162.326 39.886 161.904 39.6044C161.481 39.3052 161.27 38.8916 161.27 38.3636C161.27 37.6244 161.613 36.8852 162.3 36.146C162.986 35.3892 163.901 34.7116 165.045 34.1132C166.207 33.4972 167.501 33.0132 168.926 32.6612C170.352 32.2916 171.813 32.1068 173.309 32.1068C175.368 32.1068 176.978 32.4148 178.14 33.0308C179.301 33.6468 180.12 34.5092 180.595 35.618C181.07 36.7268 181.308 38.0116 181.308 39.4724V51.1676C181.308 51.6076 181.369 51.9772 181.493 52.2764C181.616 52.558 181.801 52.7692 182.047 52.91C182.293 53.0508 182.601 53.1212 182.971 53.1212C183.305 53.1212 183.675 53.0684 184.08 52.9628C184.485 52.8396 184.898 52.646 185.321 52.382V54.0188C184.353 54.8636 183.332 55.5236 182.258 55.9988C181.202 56.474 180.181 56.7116 179.196 56.7116C177.981 56.7116 176.996 56.4828 176.239 56.0252C175.5 55.55 174.954 54.89 174.602 54.0452C174.25 53.2004 174.057 52.206 174.021 51.062L174.285 51.0092C173.951 52.2764 173.449 53.3324 172.781 54.1772C172.129 55.022 171.346 55.6556 170.431 56.078C169.533 56.5004 168.539 56.7116 167.448 56.7116C165.494 56.7116 163.91 56.2012 162.696 55.1804C161.499 54.142 160.9 52.602 160.9 50.5604C160.9 49.5748 161.094 48.686 161.481 47.894C161.886 47.0844 162.59 46.3188 163.593 45.5972C164.614 44.8756 166.04 44.1716 167.87 43.4852C169.718 42.7988 172.077 42.1036 174.945 41.3996Z" fill="#131210"/>
<defs>
<linearGradient id="paint0_linear_15086_1899" x1="17.6794" y1="44" x2="185.321" y2="44" gradientUnits="userSpaceOnUse">
<stop stop-color="#1A56DB"/>
<stop offset="0.110577" stop-color="#0D9488"/>
<stop offset="0.182692" stop-color="#F4A016"/>
</linearGradient>
</defs>
</svg>
