<svg width="16" height="16" viewBox="0 0 16 16" fill="none" xmlns="http://www.w3.org/2000/svg">
<path opacity="0.2" d="M13.5 13.0003H2.50001C2.32456 13.0001 2.15225 12.9538 2.00037 12.8659C1.8485 12.7781 1.7224 12.6518 1.63476 12.4998C1.54711 12.3479 1.50099 12.1755 1.50104 12C1.50108 11.8246 1.54729 11.6522 1.63501 11.5003L7.13501 2.00028C7.22283 1.84845 7.34905 1.72239 7.50098 1.63475C7.65292 1.54711 7.82524 1.50098 8.00064 1.50098C8.17604 1.50098 8.34835 1.54711 8.50029 1.63475C8.65223 1.72239 8.77844 1.84845 8.86626 2.00028L14.3663 11.5003C14.454 11.6523 14.5002 11.8248 14.5002 12.0003C14.5002 12.1759 14.454 12.3484 14.3662 12.5004C14.2784 12.6524 14.1521 12.7786 14.0001 12.8664C13.848 12.9541 13.6756 13.0003 13.5 13.0003Z" fill="#1B6F4A"/>
<path d="M6 13.0004C6 13.133 5.94732 13.2602 5.85356 13.3539C5.75979 13.4477 5.63261 13.5004 5.5 13.5004H2.5C2.23677 13.5002 1.97822 13.4308 1.75032 13.2991C1.52242 13.1674 1.33319 12.978 1.20165 12.75C1.0701 12.522 1.00088 12.2634 1.00092 12.0001C1.00096 11.7369 1.07026 11.4783 1.20188 11.2504L3.345 7.54725L2.46688 7.78162C2.40327 7.79861 2.33694 7.80291 2.27167 7.79426C2.2064 7.78562 2.14347 7.7642 2.08648 7.73124C1.97138 7.66466 1.88744 7.55509 1.85313 7.42662C1.81882 7.29816 1.83694 7.16133 1.90352 7.04623C1.97009 6.93113 2.07966 6.84719 2.20813 6.81287L4.25625 6.26475C4.3197 6.24774 4.38587 6.2434 4.451 6.25197C4.51612 6.26054 4.57892 6.28187 4.6358 6.31472C4.69268 6.34757 4.74253 6.39131 4.7825 6.44343C4.82247 6.49555 4.85178 6.55504 4.86875 6.6185L5.41813 8.66662C5.43548 8.73036 5.44003 8.7969 5.43152 8.86241C5.42301 8.92791 5.4016 8.99108 5.36853 9.04826C5.33547 9.10545 5.2914 9.15551 5.23887 9.19557C5.18634 9.23562 5.1264 9.26487 5.0625 9.28162C5.02005 9.29268 4.97637 9.29835 4.9325 9.2985C4.82251 9.29839 4.71562 9.26202 4.62839 9.19502C4.54116 9.12802 4.47846 9.03412 4.45 8.92787L4.2125 8.0435L2.06938 11.7504C2.02559 11.8262 2.00249 11.9122 2.00239 11.9998C2.00228 12.0873 2.02518 12.1734 2.06878 12.2493C2.11238 12.3253 2.17516 12.3884 2.25084 12.4325C2.32652 12.4765 2.41244 12.5 2.5 12.5004H5.5C5.63261 12.5004 5.75979 12.5531 5.85356 12.6468C5.94732 12.7406 6 12.8678 6 13.0004ZM14.7956 11.2504L13.3494 8.75037C13.2802 8.64154 13.1716 8.56365 13.0464 8.53297C12.9211 8.50229 12.7888 8.52119 12.6772 8.58573C12.5655 8.65027 12.4831 8.75545 12.4472 8.8793C12.4113 9.00316 12.4246 9.1361 12.4844 9.25037L13.9306 11.7504C13.9744 11.8262 13.9975 11.9122 13.9976 11.9998C13.9977 12.0873 13.9748 12.1734 13.9312 12.2493C13.8876 12.3253 13.8248 12.3884 13.7492 12.4325C13.6735 12.4765 13.5876 12.5 13.5 12.5004H9.20688L9.85313 11.8541C9.94695 11.7604 9.99969 11.6332 9.99975 11.5006C9.99981 11.368 9.94718 11.2408 9.85344 11.1469C9.7597 11.0531 9.63253 11.0004 9.49991 11.0003C9.36729 11.0003 9.24007 11.0529 9.14625 11.1466L7.64625 12.6466C7.59976 12.6931 7.56288 12.7482 7.53772 12.8089C7.51256 12.8696 7.49961 12.9347 7.49961 13.0004C7.49961 13.0661 7.51256 13.1311 7.53772 13.1918C7.56288 13.2525 7.59976 13.3077 7.64625 13.3541L9.14625 14.8541C9.19271 14.9005 9.24785 14.9373 9.30853 14.9625C9.36921 14.9876 9.43424 15.0005 9.49991 15.0004C9.56558 15.0004 9.6306 14.9874 9.69126 14.9623C9.75192 14.9371 9.80703 14.9003 9.85344 14.8538C9.89985 14.8074 9.93666 14.7522 9.96177 14.6915C9.98687 14.6309 9.99978 14.5658 9.99975 14.5002C9.99972 14.4345 9.98675 14.3695 9.9616 14.3088C9.93644 14.2481 9.89958 14.193 9.85313 14.1466L9.20688 13.5004H13.5C13.7632 13.5002 14.0218 13.4308 14.2497 13.2991C14.4776 13.1674 14.6668 12.978 14.7984 12.75C14.9299 12.522 14.9991 12.2634 14.9991 12.0001C14.999 11.7369 14.9297 11.4783 14.7981 11.2504H14.7956ZM8 2.00037C8.08788 1.99949 8.17437 2.02223 8.25045 2.06621C8.32653 2.11018 8.38941 2.17379 8.4325 2.25037L10.5756 5.9535L9.69563 5.71725C9.56911 5.68755 9.436 5.70828 9.32451 5.77504C9.21302 5.8418 9.13189 5.94935 9.09833 6.0749C9.06477 6.20044 9.08141 6.33412 9.14472 6.44761C9.20803 6.5611 9.31304 6.64548 9.4375 6.68287L11.4863 7.23225C11.5285 7.24334 11.572 7.24901 11.6156 7.24912C11.7256 7.24902 11.8325 7.21265 11.9197 7.14565C12.007 7.07864 12.0697 6.98475 12.0981 6.8785L12.6475 4.82912C12.6664 4.76514 12.6722 4.69803 12.6648 4.63174C12.6573 4.56546 12.6366 4.50133 12.604 4.44316C12.5714 4.38498 12.5274 4.33392 12.4747 4.29298C12.4221 4.25204 12.3618 4.22206 12.2973 4.20479C12.2329 4.18753 12.1656 4.18333 12.0996 4.19245C12.0335 4.20156 11.9699 4.22381 11.9126 4.25788C11.8552 4.29194 11.8052 4.33714 11.7656 4.39081C11.726 4.44448 11.6975 4.50553 11.6819 4.57037L11.4444 5.456L9.29813 1.75037C9.16635 1.52277 8.97705 1.33382 8.74921 1.20246C8.52137 1.0711 8.263 1.00195 8 1.00195C7.73701 1.00195 7.47863 1.0711 7.25079 1.20246C7.02295 1.33382 6.83365 1.52277 6.70188 1.75037L5.25438 4.25037C5.19219 4.36491 5.17717 4.49919 5.21253 4.62463C5.24789 4.75007 5.33083 4.85675 5.44369 4.92194C5.55654 4.98712 5.69039 5.00567 5.81672 4.97362C5.94304 4.94158 6.05187 4.86147 6.12 4.75037L7.5675 2.25037C7.6106 2.17379 7.67347 2.11018 7.74955 2.06621C7.82563 2.02223 7.91213 1.99949 8 2.00037Z" fill="#1B6F4A"/>
</svg>
