<svg width="16" height="16" viewBox="0 0 16 16" fill="none" xmlns="http://www.w3.org/2000/svg">
<path d="M15.75 15C15.75 15.1989 15.671 15.3897 15.5303 15.5303C15.3897 15.671 15.1989 15.75 15 15.75C14.8011 15.75 14.6103 15.671 14.4697 15.5303C14.329 15.3897 14.25 15.1989 14.25 15C14.25 7.55625 8.19375 1.5 0.750001 1.5C0.551088 1.5 0.360323 1.42098 0.219671 1.28033C0.0790184 1.13968 6.06878e-07 0.948912 6.06878e-07 0.75C6.06878e-07 0.551088 0.0790184 0.360322 0.219671 0.21967C0.360323 0.0790178 0.551088 0 0.750001 0C9.02063 0 15.75 6.72937 15.75 15ZM0.750001 6.75C0.551088 6.75 0.360323 6.82902 0.219671 6.96967C0.0790184 7.11032 6.06878e-07 7.30109 6.06878e-07 7.5C6.06878e-07 7.69891 0.0790184 7.88968 0.219671 8.03033C0.360323 8.17098 0.551088 8.25 0.750001 8.25C2.5396 8.25199 4.25534 8.96378 5.52078 10.2292C6.78622 11.4947 7.49802 13.2104 7.5 15C7.5 15.1989 7.57902 15.3897 7.71967 15.5303C7.86032 15.671 8.05109 15.75 8.25 15.75C8.44891 15.75 8.63968 15.671 8.78033 15.5303C8.92098 15.3897 9 15.1989 9 15C8.99752 12.8127 8.12753 10.7157 6.58089 9.16911C5.03425 7.62247 2.93727 6.75248 0.750001 6.75ZM1.125 13.5C0.902497 13.5 0.684989 13.566 0.499984 13.6896C0.314979 13.8132 0.170785 13.9889 0.085636 14.1945C0.000487447 14.4 -0.0217913 14.6262 0.0216171 14.8445C0.0650254 15.0627 0.172171 15.2632 0.329505 15.4205C0.486839 15.5778 0.687295 15.685 0.905524 15.7284C1.12375 15.7718 1.34995 15.7495 1.55552 15.6644C1.76109 15.5792 1.93679 15.435 2.0604 15.25C2.18402 15.065 2.25 14.8475 2.25 14.625C2.25 14.3266 2.13147 14.0405 1.9205 13.8295C1.70952 13.6185 1.42337 13.5 1.125 13.5Z" fill="#131210"/>
</svg>
